<?xml version="1.0"?>
<svg xmlns="http://www.w3.org/2000/svg" height="512px" viewBox="0 -1 496 496" width="512px"><path d="m112 334.945312v48h32v-16h-16v-32zm0 0" fill="#E91E63"/><path d="m120 286.945312c-20.246094 0-40.023438 7.0625-55.6875 19.878907l10.136719 12.375c10.734375-8.785157 23.847656-14.207031 37.550781-15.75v15.496093h16v-15.53125c33.3125 3.707032 59.824219 30.210938 63.527344 63.53125h-15.527344v16h15.496094c-1.542969 13.710938-6.96875 26.816407-15.753906 37.542969l12.386718 10.144531c12.816406-15.664062 19.871094-35.441406 19.871094-55.6875 0-48.519531-39.480469-88-88-88zm0 0" fill="#E91E63"/><path d="m128 446.441406v-15.496094h-16v15.527344c-33.3125-3.703125-59.824219-30.207031-63.527344-63.527344h15.527344v-16h-15.496094c1.542969-13.714843 6.96875-26.816406 15.753906-37.546874l-12.386718-10.140626c-12.816406 15.664063-19.871094 35.4375-19.871094 55.6875 0 48.519532 39.480469 88 88 88 20.246094 0 40.023438-7.066406 55.6875-19.882812l-10.136719-12.375c-10.734375 8.785156-23.839843 14.207031-37.550781 15.753906zm0 0" fill="#E91E63"/><path d="m496 102.945312h-48v-40h-40v-62.945312l-32 21.328125-32-21.328125v62.945312h-16c-27.863281 0-52.039062 15.941407-64 39.167969-11.960938-23.226562-36.136719-39.167969-64-39.167969h-120v40h-48v190.6875c-19.792969 21.40625-32 49.925782-32 81.3125 0 66.167969 53.832031 120 120 120 39.136719 0 73.855469-18.921874 95.777344-48h96.222656v8c0 22.054688 17.945312 40 40 40s40-17.945312 40-40v-8h104zm-136-73.058593 16 10.671875 16-10.671875v33.058593h-32zm-32 49.058593h104v304h-40v-186.425781l-19.71875-29.574219h43.71875v-16h-54.382812l-9.617188-14.425781-9.617188 14.425781h-38.382812v16h27.71875l-19.71875 29.574219v186.425781h-40v-248c0-30.875 25.121094-56 56-56zm16 232v96h-16v-200h16v88h16v-88h16v200h-16v-96zm8-145.578124 17.054688 25.578124h-34.101563zm-152-86.421876c30.878906 0 56 25.125 56 56v248h-16.40625c.175781-2.65625.40625-5.296874.40625-8 0-30.753906-11.726562-58.746093-30.808594-80h14.808594v-80h-112v40.40625c-5.425781.359376-10.792969.953126-16 2.015626v-178.421876zm8 200h-16.304688c-18.023437-13.496093-39.894531-22.015624-63.695312-23.59375v-24.40625h80zm-128-160v143c-11.59375 4.117188-22.351562 9.949219-32 17.222657v-160.222657zm40 360c-57.34375 0-104-46.65625-104-104s46.65625-104 104-104 104 46.65625 104 104-46.65625 104-104 104zm106.046875-48c5.265625-9.9375 9.226563-20.664062 11.527344-32h74.425781v32zm125.953125 48c-13.230469 0-24-10.769531-24-24v-32h48v32c0 13.230469-10.769531 24-24 24zm128-48h-88v-32h56v-280h32zm0 0" fill="#E91E63"/><path d="m112 118.945312h16v16h-16zm0 0" fill="#E91E63"/><path d="m144 118.945312h80v16h-80zm0 0" fill="#E91E63"/><path d="m112 150.945312h16v16h-16zm0 0" fill="#E91E63"/><path d="m144 150.945312h80v16h-80zm0 0" fill="#E91E63"/><path d="m112 182.945312h112v16h-112zm0 0" fill="#E91E63"/><path d="m304 118.945312h112v16h-112zm0 0" fill="#E91E63"/></svg>
